<svg width="580" height="400" xmlns="http://www.w3.org/2000/svg">
 <!-- Created with SVG Editor - http://github.com/mzalive/SVG Editor/ -->

 <g>
  <title>background</title>
  <g display="none" overflow="visible" y="0" x="0" height="100%" width="100%" id="canvasGrid">
   <rect fill="url(#gridpattern)" stroke-width="0" y="0" x="0" height="100%" width="100%"/>
  </g>
 </g>
 <g>
  <title>Layer 1</title>
  <g stroke="null" id="svg_20">
   <g id="svg_18" fill="#000000" transform="matrix(0.199622722545292,0,0,-0.2037225247622939,-2616.079553819994,-1472.6866596175673) ">
    <path stroke="null" id="svg_19" d="m14612.953094,-7366.349691c0,-27 -2,-30 -15,-19c-20,16 -19,0 1,-28c8,-12 13,-32 11,-45c-3,-19 -5,-17 -12,11c-7,30 -25,45 -25,21c0,-8 -5,-8 -15,1c-12,10 -15,10 -15,-3c0,-9 5,-19 11,-22c6,-4 8,-13 5,-21c-3,-8 1,-14 9,-14c8,0 15,-4 15,-10c0,-5 -7,-10 -16,-10c-8,0 -12,-4 -9,-10c13,-21 -6,-30 -35,-15c-37,19 -46,19 -30,0c7,-9 10,-18 7,-21c-3,-4 1,-13 9,-21c13,-14 13,-17 -3,-29c-17,-12 -16,-13 7,-15c14,-1 31,-2 37,-2c7,1 10,-3 7,-8c-3,-5 3,-10 13,-11c10,0 24,-2 30,-2c7,-1 12,-6 10,-11c-2,-11 -51,-11 -86,0c-19,6 -22,5 -16,-6c5,-7 -7,-4 -28,9c-20,12 -37,17 -37,12c0,-5 -9,-12 -20,-15c-25,-8 -17,-25 11,-25c11,0 17,-4 14,-10c-3,-5 -2,-10 4,-10c5,0 13,5 16,10c3,6 12,10 18,10c8,0 7,-3 -2,-9c-18,-12 -5,-32 16,-24c11,4 14,3 9,-6c-9,-15 46,-6 86,13c20,10 25,11 22,1c-6,-16 -79,-56 -88,-48c-10,10 -76,10 -76,0c0,-5 -9,-7 -20,-4c-11,3 -20,2 -20,-2c0,-14 41,-51 55,-51c8,0 15,-4 15,-10c0,-5 -10,-9 -22,-7c-17,1 -22,-3 -20,-15c2,-12 -3,-17 -15,-16c-10,0 -28,0 -41,0c-21,-2 -22,-4 -8,-17c8,-8 19,-15 24,-15c5,0 15,-7 22,-15c7,-8 16,-13 20,-10c4,2 19,-9 35,-25l28,-29l-27,-7c-14,-3 -37,-3 -51,0c-15,4 -25,2 -25,-4c0,-7 -8,-9 -20,-5c-11,3 -20,4 -20,0c0,-11 49,-55 72,-65c18,-7 10,-9 -34,-9c-56,-1 -57,-2 -40,-19c9,-10 19,-17 21,-16c2,2 10,-3 18,-11c17,-17 39,-19 48,-5c3,6 14,10 23,10c14,0 14,-2 3,-9c-7,-5 -11,-13 -8,-18c7,-11 -34,-33 -61,-33c-9,-1 -34,-9 -55,-19c-29,-13 -35,-20 -23,-24c24,-9 19,-22 -9,-23c-14,-1 -23,2 -20,6c3,4 -2,10 -10,14c-8,3 -17,1 -20,-4c-13,-21 -115,-5 -115,18c0,4 29,8 63,8c56,2 67,5 94,32l30,31l-26,7c-14,4 -39,6 -55,5c-17,-2 -26,1 -22,8c4,6 -6,8 -28,4c-33,-5 -101,11 -111,27c-4,6 79,4 106,-3c4,-1 15,7 25,18c11,11 32,26 48,33c16,7 26,15 24,18c-10,10 -83,11 -96,1c-9,-7 -25,-6 -52,2c-52,15 -62,32 -16,26c21,-2 36,0 36,6c0,6 9,7 21,4c16,-5 19,-4 14,5c-5,9 -4,11 3,6c6,-4 26,1 44,10c32,17 32,17 9,25c-12,5 -34,6 -47,3c-15,-4 -24,-2 -24,6c0,9 -14,10 -51,5c-35,-5 -49,-4 -45,3c4,6 -5,12 -21,14c-14,2 -28,10 -30,18c-3,10 -2,11 4,4c10,-13 44,-15 59,-3c7,6 16,3 24,-6c10,-12 15,-13 28,-3c8,7 17,12 19,11c8,-6 33,-2 33,5c0,12 -78,44 -90,37c-6,-3 -7,0 -4,9c3,9 11,16 17,16c6,0 3,6 -8,14c-17,12 -17,13 8,20c26,6 38,26 16,26c-8,0 -8,5 1,15c10,12 10,15 0,15c-7,0 -10,7 -6,15c6,16 -9,21 -19,5c-3,-5 -12,-7 -19,-4c-8,3 -17,-3 -20,-14c-4,-11 -18,-27 -31,-36c-24,-16 -25,-16 -26,9c-1,14 -2,31 -3,38c-1,7 11,12 26,12c38,1 46,13 17,24c-24,10 -23,10 6,11c17,1 24,4 17,7c-10,4 -10,8 0,21c12,13 10,14 -9,3c-13,-6 -23,-8 -23,-4c0,4 -7,-1 -15,-11c-8,-11 -18,-16 -22,-13c-3,4 3,21 15,37c24,31 30,52 10,32c-18,-18 -26,-15 -31,16c-4,25 -4,25 -6,-5c-1,-35 -9,-41 -29,-21c-8,8 -12,8 -12,1c0,-6 7,-16 15,-23c8,-7 15,-22 15,-34c-1,-21 -1,-21 -13,-1c-7,11 -22,21 -34,22c-24,3 -31,-11 -12,-22c6,-4 8,-13 5,-21c-3,-8 1,-14 9,-14c8,0 15,-5 15,-11c0,-6 -7,-8 -16,-5c-14,5 -15,4 -5,-8c18,-22 -4,-29 -38,-12c-28,15 -29,15 -27,-9c0,-14 7,-27 14,-30c18,-7 15,-23 -5,-28c-18,-5 29,-11 56,-8c7,2 10,-2 7,-8c-7,-11 29,-25 44,-16c5,3 10,1 10,-5c0,-16 -117,-10 -152,7c-17,8 -28,10 -28,3c0,-5 -9,-10 -20,-10c-11,0 -20,-4 -20,-10c0,-5 11,-10 25,-10c18,0 23,-4 18,-16c-5,-14 -3,-15 16,-5c12,7 21,8 20,4c-3,-19 3,-22 27,-12c24,8 25,8 14,-6c-10,-13 -9,-15 6,-15c11,1 36,7 57,14c30,11 35,11 27,1c-21,-25 -69,-39 -95,-27c-15,7 -25,8 -25,2c0,-5 -8,-9 -17,-8c-10,1 -28,0 -41,0c-19,-2 -21,-5 -12,-22c6,-11 22,-23 35,-26c34,-8 32,-23 -2,-16c-22,4 -25,2 -19,-13c5,-14 2,-16 -14,-12c-11,3 -20,1 -20,-4c0,-5 -12,-7 -28,-3c-26,6 -26,5 -7,-9c11,-8 37,-20 58,-28c20,-7 47,-23 58,-36l22,-22l-27,-7c-14,-3 -37,-3 -51,0c-15,4 -25,2 -25,-4c0,-7 -9,-9 -22,-4l-23,7l20,-23c11,-13 34,-29 50,-36c29,-13 28,-13 -30,-14l-60,0l45,-29c40,-25 47,-27 65,-15c23,17 35,18 35,3c0,-5 -5,-7 -12,-3c-7,5 -9,2 -5,-8c7,-19 -30,-38 -73,-38c-16,0 -32,-5 -35,-10c-3,-5 -16,-10 -27,-10c-21,0 -21,0 2,-22c13,-13 32,-21 42,-20c10,2 18,-1 18,-5c0,-5 12,-8 27,-7c16,1 28,2 28,4c0,1 17,3 38,6c50,5 47,-2 -10,-20c-27,-8 -40,-15 -30,-15c10,-1 15,-5 12,-11c-3,-5 -36,-11 -73,-11c-62,-1 -149,-15 -109,-18c18,-1 24,-17 7,-23c-6,-2 5,-8 25,-14c19,-6 32,-7 28,-1c-3,5 4,4 17,-3c12,-6 28,-9 36,-6c8,3 12,2 9,-4c-3,-5 3,-9 12,-9c21,1 76,-10 81,-16c11,-11 -85,-25 -152,-23c-58,2 -73,0 -61,-8c8,-6 12,-14 8,-17c-3,-4 1,-7 11,-7c9,0 15,-4 12,-8c-2,-4 5,-9 17,-9c39,-3 68,-13 62,-22c-3,-5 5,-7 17,-4c19,5 21,3 10,-8c-8,-9 -35,-14 -77,-14c-36,0 -65,-3 -65,-6c0,-3 -12,-4 -26,-1c-19,3 -25,1 -20,-7c6,-9 0,-10 -20,-5c-19,5 -25,4 -20,-5c4,-6 16,-11 26,-11c12,0 17,-5 14,-13c-6,-18 19,-39 42,-35c32,6 25,-19 -8,-29c-18,-6 -25,-11 -15,-12c10,-1 15,-5 12,-11c-5,-9 16,-18 58,-24c43,-6 24,-16 -32,-16c-39,0 -60,-4 -56,-10c3,-5 -3,-10 -15,-10c-12,0 -19,-4 -16,-9c3,-5 16,-7 28,-3c14,3 19,2 14,-6c-5,-8 0,-12 13,-12c12,0 21,-5 21,-11c0,-6 7,-9 15,-5c8,3 15,0 15,-5c0,-7 11,-4 26,6c15,9 23,12 20,6c-4,-6 -1,-11 6,-12c7,0 2,-5 -12,-10c-14,-6 -37,-8 -52,-5c-15,3 -42,-1 -60,-9c-18,-8 -29,-14 -24,-15c6,0 1,-7 -10,-16c-18,-15 -18,-15 5,-8c15,4 21,2 17,-4c-8,-14 11,-19 66,-17c45,1 59,-14 15,-16c-17,-1 -18,-2 -4,-6c9,-2 14,-9 11,-15c-5,-7 0,-9 14,-6c12,4 23,0 26,-7c3,-8 18,-12 35,-11c17,1 31,-2 31,-6c0,-5 8,-4 18,1c12,6 23,6 28,1c6,-6 20,-4 37,5c15,7 27,11 27,8c0,-3 8,1 18,10c10,10 21,14 25,11c3,-3 12,3 19,15c29,47 51,6 28,-53c-9,-26 -9,-26 45,-26c54,0 54,0 45,26c-18,47 -6,59 26,27c21,-21 134,-32 134,-13c0,8 10,10 33,6c61,-12 189,-11 206,1c9,7 23,13 32,13c9,0 20,7 23,16c3,8 10,13 15,9c5,-3 16,4 25,16c31,44 45,-11 19,-77c-4,-11 6,-14 45,-14l50,0l-6,42c-5,42 -5,42 13,24c11,-10 32,-24 47,-30c33,-14 98,-9 98,8c0,15 27,14 56,-1c30,-17 60,-10 55,13c-3,18 -2,18 16,2c14,-13 22,-15 30,-7c8,8 13,8 17,0c4,-6 12,-11 17,-11c6,0 8,4 4,9c-3,6 6,7 22,2c41,-10 67,-6 108,18c47,27 49,27 42,-9c-6,-28 -4,-30 22,-30c25,0 28,3 24,21c-5,18 -3,20 14,11c21,-12 153,-13 153,-2c0,4 11,5 25,2c14,-2 25,0 25,7c0,5 7,8 15,5c8,-4 15,-1 15,5c0,6 -12,11 -26,11l-27,0l27,25c15,14 24,30 21,35c-3,6 0,10 7,10c10,0 10,2 -1,9c-8,5 -24,6 -35,1c-19,-7 -71,4 -88,19c-4,3 9,7 29,8c20,1 39,6 42,11c3,5 21,13 40,17c45,10 25,21 -51,28c-79,8 -112,28 -43,26c28,-1 64,4 81,10c38,14 41,41 5,42c-30,1 -75,17 -51,19c8,0 26,9 40,20l25,20l-52,0c-32,0 -53,4 -53,11c0,6 7,8 16,5c17,-7 44,9 44,26c0,5 -10,9 -22,8c-37,-3 -41,-1 -28,15c11,13 7,15 -24,15c-20,0 -36,5 -36,11c0,5 4,7 10,4c5,-3 15,-1 22,5c7,6 22,17 33,25c19,13 19,14 -7,24c-16,6 -41,8 -57,5c-16,-3 -31,-2 -35,4c-3,5 11,12 32,15c22,4 42,15 50,27c7,11 9,20 5,21c-68,5 -109,12 -122,19c-12,7 -8,9 17,10c34,0 98,27 88,37c-3,3 -25,5 -48,5c-24,-1 -50,4 -58,9c-12,9 -10,10 8,6c12,-3 22,-1 22,5c0,5 4,6 10,3c5,-3 22,1 37,9c16,8 24,16 18,17c-23,4 -62,9 -85,13c-38,5 -40,5 -40,15c0,4 15,7 33,5c47,-6 69,5 37,19c-14,5 -29,9 -34,8c-5,-1 -4,5 4,13c10,13 10,16 -1,16c-9,0 -10,3 -3,8c16,11 23,37 14,52c-6,10 -14,7 -33,-13c-30,-33 -37,-34 -37,-2c0,18 4,23 15,19c8,-4 15,-2 16,2c0,5 2,17 4,27c3,17 2,17 -21,2c-25,-16 -33,-8 -12,13c9,9 9,15 0,24c-9,9 -12,9 -12,-1c0,-8 -6,-11 -17,-6c-15,5 -16,4 -5,-6c6,-7 12,-20 11,-28c0,-11 -2,-12 -6,-3c-2,6 -11,12 -19,12c-11,0 -12,-4 -4,-19c15,-29 3,-53 -20,-41c-16,8 -18,7 -15,-10c6,-31 14,-39 48,-50c27,-8 22,-9 -30,-5c-73,5 -86,-5 -38,-28c26,-12 41,-14 61,-7c36,14 42,12 16,-6c-12,-8 -30,-14 -40,-13c-9,1 -30,1 -47,0l-30,-2l24,-19c18,-16 20,-20 7,-20c-10,0 -14,-5 -11,-11c4,-6 1,-10 -6,-8c-39,5 -40,-4 -5,-24c43,-24 48,-41 13,-43c-51,-3 -53,-4 -28,-24l23,-20l-28,0l-29,0l25,-20c21,-16 22,-20 7,-20c-27,0 -111,21 -121,31c-9,8 14,14 37,10c4,-1 25,15 45,35c37,36 37,36 10,30c-16,-4 -28,-3 -28,1c0,5 -22,8 -50,8c-27,0 -55,6 -62,13c-9,9 -4,12 28,12c28,0 47,6 59,20c10,11 15,20 10,20c-4,0 -1,7 6,16c12,15 10,16 -21,9c-53,-12 -73,-11 -78,4c-3,10 0,12 11,8c11,-4 14,-2 10,9c-3,7 0,14 6,14c6,0 11,5 11,10c0,6 -27,10 -60,10c-60,0 -84,16 -32,22c15,2 26,8 25,16c-2,6 4,12 12,12c20,0 71,47 62,57c-4,4 -23,7 -42,7c-18,0 -32,3 -29,7c8,14 -15,20 -35,10c-25,-14 -79,-3 -90,18c-8,14 0,16 57,18c42,1 68,6 70,13c3,7 13,20 23,28c24,21 24,32 -1,32c-11,0 -20,4 -20,10c0,6 -9,6 -25,0c-19,-7 -25,-6 -25,4c0,11 -10,13 -38,9c-34,-5 -102,17 -102,32c0,3 25,3 56,2c40,-3 57,0 61,10c3,7 9,10 14,7c5,-3 9,5 9,17c0,18 2,19 15,9c8,-7 15,-8 15,-3c0,6 10,15 23,21l22,11l-25,1c-14,1 -33,2 -42,1c-10,-1 -18,3 -18,9c0,7 -8,6 -21,-4c-23,-16 -70,-6 -98,20c-12,11 -10,13 10,10c14,-1 30,-6 37,-10c7,-4 12,-1 12,8c0,18 16,21 25,6c3,-5 11,-10 17,-10c6,0 5,7 -3,17c-13,15 -12,15 8,5c18,-10 23,-9 28,7c3,11 14,21 23,23c14,3 13,6 -5,16c-17,9 -28,10 -43,2c-16,-8 -22,-8 -26,4c-3,9 -15,13 -32,10c-55,-10 -67,-9 -65,4c2,6 -6,12 -16,12c-11,0 -22,4 -26,9c-3,6 8,8 25,6c18,-2 30,1 30,7c0,6 10,3 21,-8c16,-14 23,-15 26,-6c3,6 15,12 28,12c36,0 39,17 5,32c-16,7 -30,17 -30,22c0,4 -12,5 -27,1l-28,-7l24,21l24,21l-24,9c-22,9 -22,11 -1,15c4,1 16,7 27,13c19,11 19,12 2,18c-14,6 -15,10 -5,23c10,12 10,16 1,19c-7,2 -9,12 -6,21c6,15 4,15 -10,4c-9,-8 -21,-11 -27,-7c-5,3 -14,-4 -19,-17c-5,-13 -18,-31 -30,-42c-18,-16 -21,-17 -27,-3c-3,8 -4,28 -2,44c3,24 7,28 31,25c30,-4 36,12 10,27c-15,9 -13,10 12,11c21,0 26,3 16,9c-7,5 -10,14 -7,20c12,20 -33,6 -49,-15c-14,-18 -14,-18 -15,-1c0,11 9,32 21,48c20,29 14,40 -9,17c-9,-9 -12,-6 -12,15c0,15 -4,27 -10,27c-5,0 -10,-14 -10,-31zm0,-154c0,-5 -5,-3 -10,5c-5,8 -10,20 -10,25c0,6 5,3 10,-5c5,-8 10,-19 10,-25zm-10,-40c7,-8 8,-15 2,-15c-5,0 -15,7 -22,15c-7,8 -8,15 -2,15c5,0 15,-7 22,-15zm81,-35c-22,-19 -41,-26 -41,-15c0,5 51,34 60,34c3,0 -6,-9 -19,-19zm9,-60c18,-12 2,-12 -25,0c-13,6 -15,9 -5,9c8,0 22,-4 30,-9zm-690,-45c0,-5 -5,-3 -10,5c-5,8 -10,20 -10,25c0,6 5,3 10,-5c5,-8 10,-19 10,-25zm0,-47c0,-6 -6,-5 -15,2c-8,7 -15,14 -15,16c0,2 7,1 15,-2c8,-4 15,-11 15,-16zm657,-20c-3,-8 -6,-5 -6,6c-1,11 2,17 5,13c3,-3 4,-12 1,-19zm-600,-14c-3,-3 -12,-4 -19,-1c-8,3 -5,6 6,6c11,1 17,-2 13,-5zm484,-56c-26,-9 -51,-4 -51,10c0,4 17,6 37,4c35,-4 36,-5 14,-14zm-494,-90c-3,-7 -5,-2 -5,12c0,14 2,19 5,13c2,-7 2,-19 0,-25zm-93,-50c-6,-10 -74,-11 -74,0c0,4 18,7 39,8c22,0 38,-3 35,-8zm541,-264c-17,-7 -38,-13 -47,-14c-10,0 -18,-4 -18,-10c0,-5 8,-10 18,-10c14,0 15,-2 2,-10c-20,-13 -157,-13 -165,0c-3,6 3,10 14,10c11,0 34,12 51,27c18,14 35,22 38,17c10,-13 42,-17 55,-6c7,5 20,8 30,7c9,-2 17,1 17,6c0,4 8,5 17,2c14,-6 12,-9 -12,-19zm-225,-74c11,-7 7,-10 -18,-10c-20,0 -31,4 -27,10c8,13 26,13 45,0zm903,-7c-7,-2 -19,-2 -25,0c-7,3 -2,5 12,5c14,0 19,-2 13,-5zm-813,-53c0,-5 -9,-10 -19,-10c-11,0 -23,5 -26,10c-4,6 5,10 19,10c14,0 26,-4 26,-10zm91,-15c12,-3 24,-6 26,-9c7,-7 -28,-22 -66,-30c-34,-6 -34,-6 -16,14c10,11 15,20 11,20c-4,0 -4,5 -1,10c4,6 11,8 16,5c5,-4 19,-8 30,-10zm-51,-135c0,-5 -12,-10 -26,-10c-14,0 -23,4 -19,10c3,6 15,10 26,10c10,0 19,-4 19,-10zm749,-22c-46,-28 -75,-38 -111,-38c-28,0 -38,-3 -29,-9c11,-7 10,-11 -7,-20c-16,-8 -35,-6 -86,9c-36,12 -66,25 -66,29c0,5 36,7 81,4c61,-5 83,-3 89,7c5,7 31,14 60,16c28,1 54,5 57,8c4,3 9,4 11,1c3,-3 3,-6 1,-7zm-89,-78c0,-5 -9,-10 -20,-10c-11,0 -20,5 -20,10c0,6 9,10 20,10c11,0 20,-4 20,-10zm-770,-15c0,-9 -6,-12 -15,-9c-8,4 -12,10 -9,15c8,14 24,10 24,-6zm80,-5c3,-1 -4,-5 -15,-9c-23,-9 -57,-3 -50,10c5,6 46,6 65,-1zm753,3c-7,-2 -19,-2 -25,0c-7,3 -2,5 12,5c14,0 19,-2 13,-5zm-1367,-55c4,-5 -9,-8 -30,-8c-20,0 -35,4 -32,8c6,10 52,10 62,0zm1317,-2c16,-13 16,-14 -8,-20c-28,-7 -69,10 -60,25c9,13 47,11 68,-5zm-106,-32c3,3 1,6 -5,6c-7,0 -12,4 -12,9c0,4 10,7 23,6c31,-3 30,-3 12,-21c-13,-13 -13,-19 -3,-32c11,-13 10,-14 -12,-7c-61,19 -133,66 -80,52c11,-3 20,-1 20,4c0,5 11,2 25,-7c14,-9 28,-14 32,-10z"/>
   </g>
  </g>
  <g stroke="null" id="svg_14">
   <g stroke="null" id="svg_4" fill="#000000" transform="matrix(0.029458641964210636,0,0,-0.031968059828600834,-18458.810742009708,-13978.801673188833) ">
    <path stroke="null" fill="#ffffff" id="svg_5" d="m644506.390686,-445331.596607c-40,-37 -34,-12 -104,-413c-23,-126 -48,-277 -55,-335l-15,-105l-88,-83c-165,-157 -292,-232 -403,-239c-84,-5 -121,16 -155,90c-33,69 -32,117 6,286l31,139l-22,50c-37,85 -56,96 -171,100c-96,4 -102,3 -172,-30c-194,-93 -368,-301 -446,-534c-53,-158 -39,-293 39,-375c32,-34 43,-39 81,-39c111,1 254,81 408,229c52,50 95,90 97,88c1,-1 9,-16 17,-33c44,-87 131,-136 237,-135c130,1 253,66 430,227l95,86l11,-80c24,-163 76,-254 175,-305c167,-86 355,-17 567,209l99,105l5,-70c4,-52 14,-88 37,-135c53,-109 142,-157 290,-157c142,0 274,51 446,172c212,151 496,489 410,489c-8,0 -71,-52 -140,-116c-155,-145 -237,-211 -340,-275c-245,-152 -481,-157 -541,-12c-23,55 -18,86 17,107c55,32 262,210 317,271c111,125 135,253 67,356c-77,118 -259,77 -390,-88c-56,-71 -119,-195 -144,-285c-17,-60 -31,-81 -112,-174c-166,-191 -289,-274 -406,-274c-74,0 -111,16 -147,63c-44,57 -59,144 -53,287c8,157 24,261 97,627c32,162 57,300 54,307c-6,16 -48,36 -75,36c-10,0 -35,-15 -54,-32zm1100,-568c44,-48 10,-145 -83,-236c-52,-52 -194,-166 -199,-161c-1,2 5,34 13,72c29,129 118,283 188,326c39,24 58,24 81,-1zm-2065,-99c14,-27 12,-124 -4,-202c-45,-209 -223,-400 -421,-450c-45,-11 -49,-11 -67,11c-13,16 -18,39 -18,81c0,68 17,124 72,234c106,211 251,344 375,345c42,0 54,-4 63,-19z"/>
    <path stroke="null" fill="#ffffff" id="svg_6" d="m637808.390686,-445336.596607c-46,-36 -71,-69 -86,-115c-18,-55 -3,-74 66,-88c99,-21 160,13 184,102c16,60 4,97 -37,114c-50,21 -86,17 -127,-13z"/>
    <path stroke="null" fill="#ffffff" id="svg_7" d="m629121.390686,-445365.596607c-52,-7 -169,-28 -260,-45c-143,-27 -179,-31 -271,-26l-107,5l-33,-34l-33,-34l15,-72c14,-72 14,-79 -28,-363c-59,-405 -93,-695 -93,-801c0,-103 12,-128 74,-158c45,-21 72,-20 96,4c19,19 20,33 20,208c0,208 12,310 38,330c28,21 105,41 365,93c274,55 304,64 335,104c27,34 28,65 2,98c-36,46 -86,43 -310,-22c-41,-12 -144,-36 -227,-54l-153,-33l0,42c0,145 65,466 99,495c51,42 383,94 550,85c148,-7 176,6 201,95c16,55 -47,100 -137,98c-26,-1 -91,-7 -143,-15z"/>
    <path stroke="null" fill="#ffffff" id="svg_8" d="m635891.390686,-445365.596607c-52,-7 -169,-28 -260,-45c-143,-27 -179,-31 -271,-26l-107,5l-33,-34l-33,-34l15,-72c14,-72 14,-79 -28,-363c-59,-405 -93,-695 -93,-801c0,-103 12,-128 74,-158c45,-21 72,-20 96,4c19,19 20,33 20,208c0,208 12,310 38,330c28,21 105,41 365,93c274,55 304,64 335,104c27,34 28,65 2,98c-36,46 -86,43 -310,-22c-41,-12 -144,-36 -227,-54l-153,-33l0,42c0,145 65,466 99,495c51,42 383,94 550,85c148,-7 176,6 201,95c16,55 -47,100 -137,98c-26,-1 -91,-7 -143,-15z"/>
    <path stroke="null" fill="#ffffff" id="svg_9" d="m633888.390686,-445411.596607c-23,-18 -43,-70 -61,-168c-29,-150 -103,-431 -117,-445c-9,-9 -65,-17 -164,-23c-82,-6 -158,-13 -168,-17c-24,-10 -32,-49 -17,-84c15,-36 29,-43 104,-50l59,-6l-99,-87c-145,-127 -297,-238 -327,-238c-5,0 -128,209 -161,275c-14,28 -30,69 -35,93l-9,42l73,65c85,77 110,120 102,179c-7,48 -36,76 -79,76c-100,0 -225,-170 -236,-322l-5,-69l-122,-110c-202,-184 -363,-286 -510,-324c-148,-38 -272,-1 -311,92c-23,55 -18,86 17,107c55,32 262,210 317,271c111,125 135,253 67,356c-77,118 -258,78 -390,-88c-56,-71 -126,-214 -151,-308c-15,-53 -19,-106 -19,-220c0,-150 0,-151 33,-217c55,-111 141,-159 291,-159c143,0 275,51 445,172c91,65 242,206 314,293l40,49l22,-44c13,-24 44,-75 70,-114c130,-193 123,-241 -47,-320c-212,-98 -236,-115 -249,-182c-5,-27 -2,-34 22,-50c61,-40 152,-14 292,83c150,105 449,359 616,526c99,98 182,178 184,178c10,0 -8,-103 -48,-281c-67,-296 -64,-400 13,-465c26,-22 38,-25 75,-21c24,3 56,14 71,24c39,30 39,59 -3,99c-34,33 -36,39 -36,98c0,86 32,270 77,439c30,116 40,140 58,147c13,5 96,16 186,25c304,30 454,74 480,141c13,35 3,64 -22,64c-10,0 -60,-9 -110,-20c-195,-44 -514,-65 -525,-35c-8,21 21,158 67,315c44,152 50,227 21,253c-22,20 -71,22 -95,5zm-1812,-488c44,-48 10,-145 -83,-236c-52,-52 -194,-166 -199,-161c-1,2 5,34 13,72c29,129 118,283 188,326c39,24 58,24 81,-1z"/>
    <path stroke="null" fill="#ffffff" id="svg_10" d="m642576.390686,-445430.596607c-27,-6 -131,-27 -230,-49c-203,-43 -421,-74 -635,-90c-170,-12 -250,-25 -266,-43c-7,-6 -16,-28 -19,-48c-15,-83 67,-96 375,-59c177,21 256,25 264,12c3,-5 -11,-132 -31,-283c-32,-239 -36,-302 -37,-494c-1,-246 6,-290 56,-337c39,-36 79,-37 107,-3c31,40 34,76 16,192c-15,94 -16,128 -6,273c21,294 65,654 84,683c35,53 220,87 475,87c169,0 183,1 202,20c42,42 14,122 -48,139c-45,13 -237,12 -307,0z"/>
    <path stroke="null" fill="#ffffff" id="svg_11" d="m629830.390686,-445851.596607c-113,-55 -296,-264 -382,-433c-70,-139 -87,-287 -43,-373c33,-64 104,-129 153,-138c50,-10 203,10 278,36c156,54 297,198 373,382c28,67 36,183 18,241l-9,29l32,-17c96,-49 270,-68 385,-41l58,14l-6,-37c-20,-128 -47,-467 -43,-532c6,-87 29,-147 61,-155c36,-9 120,28 128,56c70,244 139,398 233,515c117,146 230,205 396,205c86,0 99,8 99,62c0,32 -5,41 -32,58c-17,10 -61,24 -98,31c-57,10 -75,9 -126,-6c-190,-55 -339,-208 -476,-490c-35,-72 -38,-76 -33,-40c21,165 29,212 50,305c13,58 27,133 31,167c6,60 5,63 -24,93c-17,16 -37,30 -46,30c-25,0 -65,-43 -79,-85c-12,-35 -19,-41 -58,-52c-71,-19 -233,-16 -324,6c-142,34 -190,57 -247,118c-29,30 -65,61 -80,69c-47,24 -118,18 -189,-18zm108,-164c24,-15 59,-30 76,-33c24,-5 38,-18 57,-51c34,-62 36,-193 3,-260c-30,-59 -107,-151 -164,-194c-85,-64 -127,-81 -214,-84c-77,-4 -82,-3 -108,24c-35,34 -41,60 -34,140c6,85 53,181 150,310c81,107 147,174 173,174c8,0 36,-12 61,-26z"/>
    <path stroke="null" fill="#ffffff" id="svg_12" d="m640364.390686,-445851.596607c-31,-34 -41,-80 -48,-223c-7,-137 -17,-173 -61,-231c-86,-113 -341,-244 -474,-244c-44,0 -49,2 -61,33c-9,20 -14,68 -13,132c1,85 6,114 33,190c17,50 48,116 67,148c31,50 36,65 31,99c-8,58 -33,81 -80,75c-70,-10 -86,-35 -146,-237c-79,-264 -89,-410 -35,-511c40,-74 80,-99 158,-99c83,0 183,43 384,164c88,53 162,96 165,96c8,0 -3,-116 -19,-209c-32,-178 -109,-362 -184,-440c-55,-56 -99,-67 -208,-53c-115,15 -208,61 -281,137c-29,31 -59,54 -65,52c-6,-2 -20,-20 -30,-41c-19,-38 -19,-40 0,-73c21,-41 87,-101 149,-137c135,-80 344,-106 451,-58c144,65 254,278 323,627c16,83 34,200 40,260c37,384 40,507 15,543c-21,31 -83,31 -111,0z"/>
    <path stroke="null" fill="#ffffff" id="svg_13" d="m636626.390686,-445872.596607c-194,-94 -367,-302 -444,-533c-53,-158 -39,-293 39,-375c32,-34 43,-39 81,-39c111,1 254,81 408,229c52,50 95,90 97,88c1,-1 9,-16 17,-33c44,-87 131,-136 237,-135c130,1 253,66 430,227l95,86l12,-95c15,-117 27,-167 60,-232c96,-194 275,-204 508,-27c76,57 263,241 334,327l33,40l-6,-30c-14,-80 -28,-294 -23,-355c7,-81 31,-138 61,-146c36,-9 120,28 128,56c70,244 139,398 233,515c117,146 230,205 396,205c86,0 99,8 99,62c0,32 -5,41 -32,58c-17,10 -61,24 -98,31c-57,10 -75,9 -126,-6c-190,-55 -339,-208 -476,-490c-35,-72 -38,-76 -33,-40c21,165 29,212 50,305c13,58 27,133 31,167c6,60 5,63 -24,93c-36,35 -50,37 -85,9c-30,-23 -49,-78 -68,-194l-12,-78l-131,-131c-207,-208 -390,-333 -505,-344c-45,-4 -53,-2 -79,25c-64,63 -80,270 -42,528c24,161 21,195 -17,195c-38,0 -91,-29 -119,-66c-18,-24 -30,-58 -40,-121l-14,-88l-88,-83c-162,-155 -291,-232 -402,-239c-84,-5 -121,16 -155,90c-33,69 -32,117 6,286l31,139l-22,50c-37,86 -55,97 -173,100c-98,3 -104,2 -172,-31zm185,-126c14,-27 12,-124 -4,-202c-45,-209 -223,-400 -421,-450c-45,-11 -49,-11 -67,11c-13,16 -18,39 -18,81c0,68 17,124 72,234c106,211 251,344 375,345c42,0 54,-4 63,-19z"/>
   </g>
  </g>
 </g>
</svg>