<svg version="1.0" xmlns="http://www.w3.org/2000/svg"
 width="296.000000pt" height="171.000000pt" viewBox="0 0 296.000000 171.000000"
 preserveAspectRatio="xMidYMid meet">

<g transform="translate(0.000000,171.000000) scale(0.100000,-0.100000)"
fill="#000000" stroke="none">
<path d="M1540 1669 c0 -27 -2 -30 -15 -19 -20 16 -19 0 1 -28 8 -12 13 -32
11 -45 -3 -19 -5 -17 -12 11 -7 30 -25 45 -25 21 0 -8 -5 -8 -15 1 -12 10 -15
10 -15 -3 0 -9 5 -19 11 -22 6 -4 8 -13 5 -21 -3 -8 1 -14 9 -14 8 0 15 -4 15
-10 0 -5 -7 -10 -16 -10 -8 0 -12 -4 -9 -10 13 -21 -6 -30 -35 -15 -37 19 -46
19 -30 0 7 -9 10 -18 7 -21 -3 -4 1 -13 9 -21 13 -14 13 -17 -3 -29 -17 -12
-16 -13 7 -15 14 -1 31 -2 37 -2 7 1 10 -3 7 -8 -3 -5 3 -10 13 -11 10 0 24
-2 30 -2 7 -1 12 -6 10 -11 -2 -11 -51 -11 -86 0 -19 6 -22 5 -16 -6 5 -7 -7
-4 -28 9 -20 12 -37 17 -37 12 0 -5 -9 -12 -20 -15 -25 -8 -17 -25 11 -25 11
0 17 -4 14 -10 -3 -5 -2 -10 4 -10 5 0 13 5 16 10 3 6 12 10 18 10 8 0 7 -3
-2 -9 -18 -12 -5 -32 16 -24 11 4 14 3 9 -6 -9 -15 46 -6 86 13 20 10 25 11
22 1 -6 -16 -79 -56 -88 -48 -10 10 -76 10 -76 0 0 -5 -9 -7 -20 -4 -11 3 -20
2 -20 -2 0 -14 41 -51 55 -51 8 0 15 -4 15 -10 0 -5 -10 -9 -22 -7 -17 1 -22
-3 -20 -15 2 -12 -3 -17 -15 -16 -10 0 -28 0 -41 0 -21 -2 -22 -4 -8 -17 8 -8
19 -15 24 -15 5 0 15 -7 22 -15 7 -8 16 -13 20 -10 4 2 19 -9 35 -25 l28 -29
-27 -7 c-14 -3 -37 -3 -51 0 -15 4 -25 2 -25 -4 0 -7 -8 -9 -20 -5 -11 3 -20
4 -20 0 0 -11 49 -55 72 -65 18 -7 10 -9 -34 -9 -56 -1 -57 -2 -40 -19 9 -10
19 -17 21 -16 2 2 10 -3 18 -11 17 -17 39 -19 48 -5 3 6 14 10 23 10 14 0 14
-2 3 -9 -7 -5 -11 -13 -8 -18 7 -11 -34 -33 -61 -33 -9 -1 -34 -9 -55 -19 -29
-13 -35 -20 -23 -24 24 -9 19 -22 -9 -23 -14 -1 -23 2 -20 6 3 4 -2 10 -10 14
-8 3 -17 1 -20 -4 -13 -21 -115 -5 -115 18 0 4 29 8 63 8 56 2 67 5 94 32 l30
31 -26 7 c-14 4 -39 6 -55 5 -17 -2 -26 1 -22 8 4 6 -6 8 -28 4 -33 -5 -101
11 -111 27 -4 6 79 4 106 -3 4 -1 15 7 25 18 11 11 32 26 48 33 16 7 26 15 24
18 -10 10 -83 11 -96 1 -9 -7 -25 -6 -52 2 -52 15 -62 32 -16 26 21 -2 36 0
36 6 0 6 9 7 21 4 16 -5 19 -4 14 5 -5 9 -4 11 3 6 6 -4 26 1 44 10 32 17 32
17 9 25 -12 5 -34 6 -47 3 -15 -4 -24 -2 -24 6 0 9 -14 10 -51 5 -35 -5 -49
-4 -45 3 4 6 -5 12 -21 14 -14 2 -28 10 -30 18 -3 10 -2 11 4 4 10 -13 44 -15
59 -3 7 6 16 3 24 -6 10 -12 15 -13 28 -3 8 7 17 12 19 11 8 -6 33 -2 33 5 0
12 -78 44 -90 37 -6 -3 -7 0 -4 9 3 9 11 16 17 16 6 0 3 6 -8 14 -17 12 -17
13 8 20 26 6 38 26 16 26 -8 0 -8 5 1 15 10 12 10 15 0 15 -7 0 -10 7 -6 15 6
16 -9 21 -19 5 -3 -5 -12 -7 -19 -4 -8 3 -17 -3 -20 -14 -4 -11 -18 -27 -31
-36 -24 -16 -25 -16 -26 9 -1 14 -2 31 -3 38 -1 7 11 12 26 12 38 1 46 13 17
24 -24 10 -23 10 6 11 17 1 24 4 17 7 -10 4 -10 8 0 21 12 13 10 14 -9 3 -13
-6 -23 -8 -23 -4 0 4 -7 -1 -15 -11 -8 -11 -18 -16 -22 -13 -3 4 3 21 15 37
24 31 30 52 10 32 -18 -18 -26 -15 -31 16 -4 25 -4 25 -6 -5 -1 -35 -9 -41
-29 -21 -8 8 -12 8 -12 1 0 -6 7 -16 15 -23 8 -7 15 -22 15 -34 -1 -21 -1 -21
-13 -1 -7 11 -22 21 -34 22 -24 3 -31 -11 -12 -22 6 -4 8 -13 5 -21 -3 -8 1
-14 9 -14 8 0 15 -5 15 -11 0 -6 -7 -8 -16 -5 -14 5 -15 4 -5 -8 18 -22 -4
-29 -38 -12 -28 15 -29 15 -27 -9 0 -14 7 -27 14 -30 18 -7 15 -23 -5 -28 -18
-5 29 -11 56 -8 7 2 10 -2 7 -8 -7 -11 29 -25 44 -16 5 3 10 1 10 -5 0 -16
-117 -10 -152 7 -17 8 -28 10 -28 3 0 -5 -9 -10 -20 -10 -11 0 -20 -4 -20 -10
0 -5 11 -10 25 -10 18 0 23 -4 18 -16 -5 -14 -3 -15 16 -5 12 7 21 8 20 4 -3
-19 3 -22 27 -12 24 8 25 8 14 -6 -10 -13 -9 -15 6 -15 11 1 36 7 57 14 30 11
35 11 27 1 -21 -25 -69 -39 -95 -27 -15 7 -25 8 -25 2 0 -5 -8 -9 -17 -8 -10
1 -28 0 -41 0 -19 -2 -21 -5 -12 -22 6 -11 22 -23 35 -26 34 -8 32 -23 -2 -16
-22 4 -25 2 -19 -13 5 -14 2 -16 -14 -12 -11 3 -20 1 -20 -4 0 -5 -12 -7 -28
-3 -26 6 -26 5 -7 -9 11 -8 37 -20 58 -28 20 -7 47 -23 58 -36 l22 -22 -27 -7
c-14 -3 -37 -3 -51 0 -15 4 -25 2 -25 -4 0 -7 -9 -9 -22 -4 l-23 7 20 -23 c11
-13 34 -29 50 -36 29 -13 28 -13 -30 -14 l-60 0 45 -29 c40 -25 47 -27 65 -15
23 17 35 18 35 3 0 -5 -5 -7 -12 -3 -7 5 -9 2 -5 -8 7 -19 -30 -38 -73 -38
-16 0 -32 -5 -35 -10 -3 -5 -16 -10 -27 -10 -21 0 -21 0 2 -22 13 -13 32 -21
42 -20 10 2 18 -1 18 -5 0 -5 12 -8 27 -7 16 1 28 2 28 4 0 1 17 3 38 6 50 5
47 -2 -10 -20 -27 -8 -40 -15 -30 -15 10 -1 15 -5 12 -11 -3 -5 -36 -11 -73
-11 -62 -1 -149 -15 -109 -18 18 -1 24 -17 7 -23 -6 -2 5 -8 25 -14 19 -6 32
-7 28 -1 -3 5 4 4 17 -3 12 -6 28 -9 36 -6 8 3 12 2 9 -4 -3 -5 3 -9 12 -9 21
1 76 -10 81 -16 11 -11 -85 -25 -152 -23 -58 2 -73 0 -61 -8 8 -6 12 -14 8
-17 -3 -4 1 -7 11 -7 9 0 15 -4 12 -8 -2 -4 5 -9 17 -9 39 -3 68 -13 62 -22
-3 -5 5 -7 17 -4 19 5 21 3 10 -8 -8 -9 -35 -14 -77 -14 -36 0 -65 -3 -65 -6
0 -3 -12 -4 -26 -1 -19 3 -25 1 -20 -7 6 -9 0 -10 -20 -5 -19 5 -25 4 -20 -5
4 -6 16 -11 26 -11 12 0 17 -5 14 -13 -6 -18 19 -39 42 -35 32 6 25 -19 -8
-29 -18 -6 -25 -11 -15 -12 10 -1 15 -5 12 -11 -5 -9 16 -18 58 -24 43 -6 24
-16 -32 -16 -39 0 -60 -4 -56 -10 3 -5 -3 -10 -15 -10 -12 0 -19 -4 -16 -9 3
-5 16 -7 28 -3 14 3 19 2 14 -6 -5 -8 0 -12 13 -12 12 0 21 -5 21 -11 0 -6 7
-9 15 -5 8 3 15 0 15 -5 0 -7 11 -4 26 6 15 9 23 12 20 6 -4 -6 -1 -11 6 -12
7 0 2 -5 -12 -10 -14 -6 -37 -8 -52 -5 -15 3 -42 -1 -60 -9 -18 -8 -29 -14
-24 -15 6 0 1 -7 -10 -16 -18 -15 -18 -15 5 -8 15 4 21 2 17 -4 -8 -14 11 -19
66 -17 45 1 59 -14 15 -16 -17 -1 -18 -2 -4 -6 9 -2 14 -9 11 -15 -5 -7 0 -9
14 -6 12 4 23 0 26 -7 3 -8 18 -12 35 -11 17 1 31 -2 31 -6 0 -5 8 -4 18 1 12
6 23 6 28 1 6 -6 20 -4 37 5 15 7 27 11 27 8 0 -3 8 1 18 10 10 10 21 14 25
11 3 -3 12 3 19 15 29 47 51 6 28 -53 -9 -26 -9 -26 45 -26 54 0 54 0 45 26
-18 47 -6 59 26 27 21 -21 134 -32 134 -13 0 8 10 10 33 6 61 -12 189 -11 206
1 9 7 23 13 32 13 9 0 20 7 23 16 3 8 10 13 15 9 5 -3 16 4 25 16 31 44 45
-11 19 -77 -4 -11 6 -14 45 -14 l50 0 -6 42 c-5 42 -5 42 13 24 11 -10 32 -24
47 -30 33 -14 98 -9 98 8 0 15 27 14 56 -1 30 -17 60 -10 55 13 -3 18 -2 18
16 2 14 -13 22 -15 30 -7 8 8 13 8 17 0 4 -6 12 -11 17 -11 6 0 8 4 4 9 -3 6
6 7 22 2 41 -10 67 -6 108 18 47 27 49 27 42 -9 -6 -28 -4 -30 22 -30 25 0 28
3 24 21 -5 18 -3 20 14 11 21 -12 153 -13 153 -2 0 4 11 5 25 2 14 -2 25 0 25
7 0 5 7 8 15 5 8 -4 15 -1 15 5 0 6 -12 11 -26 11 l-27 0 27 25 c15 14 24 30
21 35 -3 6 0 10 7 10 10 0 10 2 -1 9 -8 5 -24 6 -35 1 -19 -7 -71 4 -88 19 -4
3 9 7 29 8 20 1 39 6 42 11 3 5 21 13 40 17 45 10 25 21 -51 28 -79 8 -112 28
-43 26 28 -1 64 4 81 10 38 14 41 41 5 42 -30 1 -75 17 -51 19 8 0 26 9 40 20
l25 20 -52 0 c-32 0 -53 4 -53 11 0 6 7 8 16 5 17 -7 44 9 44 26 0 5 -10 9
-22 8 -37 -3 -41 -1 -28 15 11 13 7 15 -24 15 -20 0 -36 5 -36 11 0 5 4 7 10
4 5 -3 15 -1 22 5 7 6 22 17 33 25 19 13 19 14 -7 24 -16 6 -41 8 -57 5 -16
-3 -31 -2 -35 4 -3 5 11 12 32 15 22 4 42 15 50 27 7 11 9 20 5 21 -68 5 -109
12 -122 19 -12 7 -8 9 17 10 34 0 98 27 88 37 -3 3 -25 5 -48 5 -24 -1 -50 4
-58 9 -12 9 -10 10 8 6 12 -3 22 -1 22 5 0 5 4 6 10 3 5 -3 22 1 37 9 16 8 24
16 18 17 -23 4 -62 9 -85 13 -38 5 -40 5 -40 15 0 4 15 7 33 5 47 -6 69 5 37
19 -14 5 -29 9 -34 8 -5 -1 -4 5 4 13 10 13 10 16 -1 16 -9 0 -10 3 -3 8 16
11 23 37 14 52 -6 10 -14 7 -33 -13 -30 -33 -37 -34 -37 -2 0 18 4 23 15 19 8
-4 15 -2 16 2 0 5 2 17 4 27 3 17 2 17 -21 2 -25 -16 -33 -8 -12 13 9 9 9 15
0 24 -9 9 -12 9 -12 -1 0 -8 -6 -11 -17 -6 -15 5 -16 4 -5 -6 6 -7 12 -20 11
-28 0 -11 -2 -12 -6 -3 -2 6 -11 12 -19 12 -11 0 -12 -4 -4 -19 15 -29 3 -53
-20 -41 -16 8 -18 7 -15 -10 6 -31 14 -39 48 -50 27 -8 22 -9 -30 -5 -73 5
-86 -5 -38 -28 26 -12 41 -14 61 -7 36 14 42 12 16 -6 -12 -8 -30 -14 -40 -13
-9 1 -30 1 -47 0 l-30 -2 24 -19 c18 -16 20 -20 7 -20 -10 0 -14 -5 -11 -11 4
-6 1 -10 -6 -8 -39 5 -40 -4 -5 -24 43 -24 48 -41 13 -43 -51 -3 -53 -4 -28
-24 l23 -20 -28 0 -29 0 25 -20 c21 -16 22 -20 7 -20 -27 0 -111 21 -121 31
-9 8 14 14 37 10 4 -1 25 15 45 35 37 36 37 36 10 30 -16 -4 -28 -3 -28 1 0 5
-22 8 -50 8 -27 0 -55 6 -62 13 -9 9 -4 12 28 12 28 0 47 6 59 20 10 11 15 20
10 20 -4 0 -1 7 6 16 12 15 10 16 -21 9 -53 -12 -73 -11 -78 4 -3 10 0 12 11
8 11 -4 14 -2 10 9 -3 7 0 14 6 14 6 0 11 5 11 10 0 6 -27 10 -60 10 -60 0
-84 16 -32 22 15 2 26 8 25 16 -2 6 4 12 12 12 20 0 71 47 62 57 -4 4 -23 7
-42 7 -18 0 -32 3 -29 7 8 14 -15 20 -35 10 -25 -14 -79 -3 -90 18 -8 14 0 16
57 18 42 1 68 6 70 13 3 7 13 20 23 28 24 21 24 32 -1 32 -11 0 -20 4 -20 10
0 6 -9 6 -25 0 -19 -7 -25 -6 -25 4 0 11 -10 13 -38 9 -34 -5 -102 17 -102 32
0 3 25 3 56 2 40 -3 57 0 61 10 3 7 9 10 14 7 5 -3 9 5 9 17 0 18 2 19 15 9 8
-7 15 -8 15 -3 0 6 10 15 23 21 l22 11 -25 1 c-14 1 -33 2 -42 1 -10 -1 -18 3
-18 9 0 7 -8 6 -21 -4 -23 -16 -70 -6 -98 20 -12 11 -10 13 10 10 14 -1 30 -6
37 -10 7 -4 12 -1 12 8 0 18 16 21 25 6 3 -5 11 -10 17 -10 6 0 5 7 -3 17 -13
15 -12 15 8 5 18 -10 23 -9 28 7 3 11 14 21 23 23 14 3 13 6 -5 16 -17 9 -28
10 -43 2 -16 -8 -22 -8 -26 4 -3 9 -15 13 -32 10 -55 -10 -67 -9 -65 4 2 6 -6
12 -16 12 -11 0 -22 4 -26 9 -3 6 8 8 25 6 18 -2 30 1 30 7 0 6 10 3 21 -8 16
-14 23 -15 26 -6 3 6 15 12 28 12 36 0 39 17 5 32 -16 7 -30 17 -30 22 0 4
-12 5 -27 1 l-28 -7 24 21 24 21 -24 9 c-22 9 -22 11 -1 15 4 1 16 7 27 13 19
11 19 12 2 18 -14 6 -15 10 -5 23 10 12 10 16 1 19 -7 2 -9 12 -6 21 6 15 4
15 -10 4 -9 -8 -21 -11 -27 -7 -5 3 -14 -4 -19 -17 -5 -13 -18 -31 -30 -42
-18 -16 -21 -17 -27 -3 -3 8 -4 28 -2 44 3 24 7 28 31 25 30 -4 36 12 10 27
-15 9 -13 10 12 11 21 0 26 3 16 9 -7 5 -10 14 -7 20 12 20 -33 6 -49 -15 -14
-18 -14 -18 -15 -1 0 11 9 32 21 48 20 29 14 40 -9 17 -9 -9 -12 -6 -12 15 0
15 -4 27 -10 27 -5 0 -10 -14 -10 -31z m0 -154 c0 -5 -5 -3 -10 5 -5 8 -10 20
-10 25 0 6 5 3 10 -5 5 -8 10 -19 10 -25z m-10 -40 c7 -8 8 -15 2 -15 -5 0
-15 7 -22 15 -7 8 -8 15 -2 15 5 0 15 -7 22 -15z m81 -35 c-22 -19 -41 -26
-41 -15 0 5 51 34 60 34 3 0 -6 -9 -19 -19z m9 -60 c18 -12 2 -12 -25 0 -13 6
-15 9 -5 9 8 0 22 -4 30 -9z m-690 -45 c0 -5 -5 -3 -10 5 -5 8 -10 20 -10 25
0 6 5 3 10 -5 5 -8 10 -19 10 -25z m0 -47 c0 -6 -6 -5 -15 2 -8 7 -15 14 -15
16 0 2 7 1 15 -2 8 -4 15 -11 15 -16z m657 -20 c-3 -8 -6 -5 -6 6 -1 11 2 17
5 13 3 -3 4 -12 1 -19z m-600 -14 c-3 -3 -12 -4 -19 -1 -8 3 -5 6 6 6 11 1 17
-2 13 -5z m484 -56 c-26 -9 -51 -4 -51 10 0 4 17 6 37 4 35 -4 36 -5 14 -14z
m-494 -90 c-3 -7 -5 -2 -5 12 0 14 2 19 5 13 2 -7 2 -19 0 -25z m-93 -50 c-6
-10 -74 -11 -74 0 0 4 18 7 39 8 22 0 38 -3 35 -8z m541 -264 c-17 -7 -38 -13
-47 -14 -10 0 -18 -4 -18 -10 0 -5 8 -10 18 -10 14 0 15 -2 2 -10 -20 -13
-157 -13 -165 0 -3 6 3 10 14 10 11 0 34 12 51 27 18 14 35 22 38 17 10 -13
42 -17 55 -6 7 5 20 8 30 7 9 -2 17 1 17 6 0 4 8 5 17 2 14 -6 12 -9 -12 -19z
m-225 -74 c11 -7 7 -10 -18 -10 -20 0 -31 4 -27 10 8 13 26 13 45 0z m903 -7
c-7 -2 -19 -2 -25 0 -7 3 -2 5 12 5 14 0 19 -2 13 -5z m-813 -53 c0 -5 -9 -10
-19 -10 -11 0 -23 5 -26 10 -4 6 5 10 19 10 14 0 26 -4 26 -10z m91 -15 c12
-3 24 -6 26 -9 7 -7 -28 -22 -66 -30 -34 -6 -34 -6 -16 14 10 11 15 20 11 20
-4 0 -4 5 -1 10 4 6 11 8 16 5 5 -4 19 -8 30 -10z m-51 -135 c0 -5 -12 -10
-26 -10 -14 0 -23 4 -19 10 3 6 15 10 26 10 10 0 19 -4 19 -10z m749 -22 c-46
-28 -75 -38 -111 -38 -28 0 -38 -3 -29 -9 11 -7 10 -11 -7 -20 -16 -8 -35 -6
-86 9 -36 12 -66 25 -66 29 0 5 36 7 81 4 61 -5 83 -3 89 7 5 7 31 14 60 16
28 1 54 5 57 8 4 3 9 4 11 1 3 -3 3 -6 1 -7z m-89 -78 c0 -5 -9 -10 -20 -10
-11 0 -20 5 -20 10 0 6 9 10 20 10 11 0 20 -4 20 -10z m-770 -15 c0 -9 -6 -12
-15 -9 -8 4 -12 10 -9 15 8 14 24 10 24 -6z m80 -5 c3 -1 -4 -5 -15 -9 -23 -9
-57 -3 -50 10 5 6 46 6 65 -1z m753 3 c-7 -2 -19 -2 -25 0 -7 3 -2 5 12 5 14
0 19 -2 13 -5z m-1367 -55 c4 -5 -9 -8 -30 -8 -20 0 -35 4 -32 8 6 10 52 10
62 0z m1317 -2 c16 -13 16 -14 -8 -20 -28 -7 -69 10 -60 25 9 13 47 11 68 -5z
m-106 -32 c3 3 1 6 -5 6 -7 0 -12 4 -12 9 0 4 10 7 23 6 31 -3 30 -3 12 -21
-13 -13 -13 -19 -3 -32 11 -13 10 -14 -12 -7 -61 19 -133 66 -80 52 11 -3 20
-1 20 4 0 5 11 2 25 -7 14 -9 28 -14 32 -10z"/>
</g>
</svg>
